<svg width="359" height="57" viewBox="0 0 359 57" fill="none" xmlns="http://www.w3.org/2000/svg">
<g filter="url(#filter0_d_41_736)">
<path d="M53.125 36.7188C53.1042 36.8021 52.9583 37.1562 52.6875 37.7812C52.4167 38.4062 51.9583 39.1771 51.3125 40.0938C50.6875 41.0104 49.8542 42.0208 48.8125 43.125C47.7708 44.2292 46.4583 45.3125 44.875 46.375C43.2917 47.4167 41.4167 48.375 39.25 49.25C37.0833 50.1042 34.5729 50.7604 31.7188 51.2188C29.8021 51.5312 27.7917 51.6875 25.6875 51.6875C23.9375 51.6875 22.1771 51.5625 20.4062 51.3125C18.6562 51.0833 16.9688 50.7083 15.3438 50.1875C13.7396 49.6875 12.2396 49.0417 10.8438 48.25C9.44792 47.4583 8.22917 46.5208 7.1875 45.4375C6.16667 44.3542 5.35417 43.1146 4.75 41.7188C4.16667 40.3021 3.875 38.7292 3.875 37C3.875 33.9375 4.71875 31.3021 6.40625 29.0938C8.11458 26.8854 10.6354 25.1667 13.9688 23.9375C12.7812 22.8333 11.8958 21.6146 11.3125 20.2812C10.7292 18.9479 10.4375 17.5625 10.4375 16.125C10.4375 14.3333 10.8438 12.6771 11.6562 11.1562C12.4896 9.63542 13.6354 8.32292 15.0938 7.21875C16.5521 6.11458 18.2812 5.26042 20.2812 4.65625C22.3021 4.03125 24.5104 3.71875 26.9062 3.71875C29.3229 3.71875 31.4271 3.94792 33.2188 4.40625C35.0312 4.86458 36.5729 5.4375 37.8438 6.125C39.1354 6.8125 40.1875 7.5625 41 8.375C41.8333 9.1875 42.4896 9.94792 42.9688 10.6562C43.4479 11.3646 43.7812 11.9688 43.9688 12.4688C44.1562 12.9479 44.2604 13.2188 44.2812 13.2812C44.3021 13.3646 44.3125 13.4792 44.3125 13.625C44.3125 13.9167 44.1979 14.1875 43.9688 14.4375C43.7604 14.6667 43.4792 14.7812 43.125 14.7812C42.875 14.7812 42.6458 14.7083 42.4375 14.5625C42.25 14.3958 42.1146 14.1771 42.0312 13.9062C42.0312 13.8646 41.9479 13.6458 41.7812 13.25C41.6146 12.8333 41.3229 12.3333 40.9062 11.75C40.4896 11.1667 39.9167 10.5521 39.1875 9.90625C38.4792 9.23958 37.5625 8.625 36.4375 8.0625C35.3125 7.47917 33.9688 7 32.4062 6.625C30.8438 6.25 29.0104 6.0625 26.9062 6.0625C24.4896 6.0625 22.3854 6.36458 20.5938 6.96875C18.8229 7.57292 17.3542 8.36458 16.1875 9.34375C15.0417 10.3021 14.1875 11.375 13.625 12.5625C13.0625 13.75 12.7812 14.9167 12.7812 16.0625C12.7812 17.4167 13.1146 18.7083 13.7812 19.9375C14.4479 21.1667 15.4062 22.2188 16.6562 23.0938C17.7812 22.8021 18.8854 22.5729 19.9688 22.4062C21.0521 22.2396 22.0729 22.1146 23.0312 22.0312C23.9896 21.9271 24.8542 21.8646 25.625 21.8438C26.4167 21.8021 27.0625 21.7812 27.5625 21.7812C28.4792 21.7812 29.3229 21.8542 30.0938 22C30.8646 22.125 31.5208 22.3229 32.0625 22.5938C32.625 22.8438 33.0625 23.1771 33.375 23.5938C33.6875 23.9896 33.8438 24.4479 33.8438 24.9688C33.8438 25.4896 33.6875 25.9583 33.375 26.375C33.0625 26.7917 32.625 27.1458 32.0625 27.4375C31.5208 27.7292 30.8646 27.9583 30.0938 28.125C29.3229 28.2708 28.4792 28.3438 27.5625 28.3438C26.5625 28.3438 25.5521 28.2812 24.5312 28.1562C23.5104 28.0312 22.5104 27.8542 21.5312 27.625C20.5729 27.3958 19.6458 27.1146 18.75 26.7812C17.8542 26.4271 17.0417 26.0312 16.3125 25.5938C13 26.5938 10.4896 28.0417 8.78125 29.9375C7.07292 31.8125 6.21875 34.1354 6.21875 36.9062C6.21875 38.4062 6.47917 39.7604 7 40.9688C7.54167 42.1562 8.28125 43.2083 9.21875 44.125C10.1562 45.0417 11.25 45.8333 12.5 46.5C13.7708 47.1458 15.125 47.6771 16.5625 48.0938C18 48.5104 19.5 48.8229 21.0625 49.0312C22.625 49.2188 24.1771 49.3125 25.7188 49.3125C26.7188 49.3125 27.6875 49.2812 28.625 49.2188C29.5625 49.1354 30.4688 49.0208 31.3438 48.875C33.9688 48.4583 36.2708 47.8542 38.25 47.0625C40.25 46.25 41.9688 45.375 43.4062 44.4375C44.8646 43.4792 46.0729 42.5104 47.0312 41.5312C47.9896 40.5312 48.75 39.625 49.3125 38.8125C49.8958 37.9792 50.3021 37.3021 50.5312 36.7812C50.7812 36.2604 50.9062 35.9896 50.9062 35.9688C50.9896 35.7188 51.125 35.5312 51.3125 35.4062C51.5208 35.2604 51.75 35.1875 52 35.1875C52.3333 35.1875 52.6146 35.3021 52.8438 35.5312C53.0729 35.7604 53.1875 36.0312 53.1875 36.3438C53.1875 36.4271 53.1667 36.5521 53.125 36.7188ZM31.4688 25C31.4688 24.8333 31.3333 24.6875 31.0625 24.5625C30.7917 24.4375 30.4375 24.3438 30 24.2812C29.5833 24.1979 29.1042 24.1458 28.5625 24.125C28.0208 24.0833 27.4688 24.0625 26.9062 24.0625C25.6771 24.0625 24.5104 24.1042 23.4062 24.1875C22.3021 24.25 21.0417 24.4167 19.625 24.6875C20.7083 25.0833 21.9479 25.4062 23.3438 25.6562C24.7604 25.8854 26.1875 26 27.625 26C28.9375 26 29.9062 25.8958 30.5312 25.6875C31.1562 25.4792 31.4688 25.25 31.4688 25Z" fill="black"/>
<path d="M62.9188 38.4375C62.7938 38.7708 62.6375 39.1458 62.45 39.5625C62.2833 39.9792 62.0854 40.4167 61.8563 40.875C61.6688 41.2292 61.4708 41.5104 61.2625 41.7188C61.075 41.9062 60.825 42 60.5125 42C60.1583 42 59.8771 41.8958 59.6688 41.6875C59.4604 41.4583 59.3563 41.1979 59.3563 40.9062C59.3563 40.8021 59.3667 40.7188 59.3875 40.6562C59.4083 40.5729 59.4604 40.4479 59.5438 40.2812C60.0854 39.2396 60.4813 38.3333 60.7313 37.5625C61.0021 36.7708 61.2208 35.9479 61.3875 35.0938C61.2417 34.6146 61.1375 34.2083 61.075 33.875C61.0125 33.5417 60.9813 33.1979 60.9813 32.8438C60.9813 32.1562 61.1271 31.6042 61.4188 31.1875C61.7104 30.75 62.1167 30.5312 62.6375 30.5312C63.1167 30.5312 63.4917 30.7396 63.7625 31.1562C64.0542 31.5729 64.2 32.0833 64.2 32.6875C64.2 33.0208 64.1688 33.3542 64.1063 33.6875C64.0438 34.0208 63.9604 34.4375 63.8563 34.9375C64.3354 36.125 64.8146 37.1771 65.2938 38.0938C65.7729 39.0104 66.2 39.8542 66.575 40.625C66.95 41.375 67.2521 42.0833 67.4813 42.75C67.7313 43.4167 67.8563 44.0833 67.8563 44.75C67.8563 45.625 67.6792 46.4583 67.325 47.25C66.9708 48.0417 66.3875 48.7083 65.575 49.25C65.6792 49.2708 65.7833 49.2812 65.8875 49.2812C65.9917 49.2812 66.0958 49.2812 66.2 49.2812C67.3875 49.2812 68.4812 49.0104 69.4812 48.4688C70.4812 47.9271 71.3771 47.2292 72.1687 46.375C72.9812 45.5 73.7 44.5417 74.325 43.5C74.95 42.4375 75.4917 41.3854 75.95 40.3438C76.1583 39.8646 76.45 39.625 76.825 39.625C77.1792 39.625 77.45 39.75 77.6375 40C77.8458 40.25 77.95 40.5208 77.95 40.8125C77.95 40.9792 77.9187 41.1354 77.8562 41.2812C77.6271 41.8438 77.325 42.4896 76.95 43.2188C76.5958 43.9271 76.1583 44.6667 75.6375 45.4375C75.1375 46.1875 74.5542 46.9271 73.8875 47.6562C73.2208 48.3854 72.4708 49.0417 71.6375 49.625C70.825 50.1875 69.9292 50.6354 68.95 50.9688C67.9708 51.3229 66.8979 51.5 65.7313 51.5C64.3354 51.5 63.0333 51.25 61.825 50.75C60.6375 50.2708 59.6688 49.4688 58.9188 48.3438C58.7938 48.1562 58.7313 47.9583 58.7313 47.75C58.7313 47.4375 58.8458 47.1667 59.075 46.9375C59.325 46.6875 59.6063 46.5625 59.9188 46.5625C60.2521 46.5625 60.5333 46.6771 60.7625 46.9062C60.7833 46.9479 60.8563 47.0208 60.9813 47.125C61.1063 47.2083 61.2521 47.3125 61.4188 47.4375C61.6063 47.5417 61.8146 47.6354 62.0438 47.7188C62.2938 47.8021 62.5438 47.8438 62.7938 47.8438C63.2938 47.8438 63.7104 47.7396 64.0438 47.5312C64.3979 47.3229 64.6792 47.0729 64.8875 46.7812C65.0958 46.4688 65.2417 46.1458 65.325 45.8125C65.4292 45.4583 65.4813 45.1562 65.4813 44.9062C65.4813 44.3854 65.3979 43.8646 65.2313 43.3438C65.0646 42.8229 64.8458 42.3021 64.575 41.7812C64.325 41.2604 64.0438 40.7292 63.7313 40.1875C63.4396 39.625 63.1688 39.0417 62.9188 38.4375Z" fill="black"/>
<path d="M104.213 18.7188C104.213 19.0521 104.098 19.3229 103.869 19.5312C103.64 19.7188 103.358 19.8125 103.025 19.8125H87.1813V20.1562C87.1813 21.4271 87.0875 22.7812 86.9 24.2188C86.7125 25.6562 86.4521 27.0938 86.1188 28.5312C85.8063 29.9479 85.4417 31.3333 85.025 32.6875C84.6292 34.0417 84.2125 35.2917 83.775 36.4375C83.3583 37.5833 82.9417 38.5833 82.525 39.4375C82.1083 40.2708 81.7333 40.8958 81.4 41.3125C81.6708 42.2708 81.9938 43.1667 82.3688 44C82.7438 44.8125 83.1604 45.5312 83.6188 46.1562C84.0979 46.7604 84.6083 47.2396 85.15 47.5938C85.6917 47.9479 86.275 48.125 86.9 48.125C87.6292 48.125 88.3479 47.8229 89.0563 47.2188C89.7854 46.5938 90.4521 45.8646 91.0563 45.0312C91.6813 44.1771 92.2229 43.3229 92.6813 42.4688C93.1604 41.5938 93.5042 40.8958 93.7125 40.375C93.9208 39.875 94.2854 39.625 94.8063 39.625C95.1604 39.625 95.4417 39.75 95.65 40C95.8792 40.25 95.9938 40.5208 95.9938 40.8125C95.9938 40.9583 95.9625 41.1042 95.9 41.25C95.8375 41.3958 95.6813 41.7292 95.4313 42.25C95.2021 42.7708 94.8896 43.375 94.4938 44.0625C94.1188 44.75 93.6708 45.4792 93.15 46.25C92.65 47 92.0771 47.6875 91.4313 48.3125C90.8063 48.9375 90.1292 49.4583 89.4 49.875C88.6708 50.2917 87.9 50.5 87.0875 50.5C85.65 50.5 84.3583 50.0312 83.2125 49.0938C82.0667 48.1562 81.0875 46.8438 80.275 45.1562C79.4833 43.4688 78.8792 41.4688 78.4625 39.1562C78.0458 36.8438 77.8375 34.3125 77.8375 31.5625C77.8375 30.875 77.8479 30.0729 77.8688 29.1562C77.8896 28.2188 77.9313 27.2396 77.9938 26.2188C78.0563 25.1771 78.15 24.1146 78.275 23.0312C78.4 21.9271 78.5667 20.8542 78.775 19.8125H67.5563C67.2229 19.8125 66.9417 19.7188 66.7125 19.5312C66.4833 19.3229 66.3688 19.0521 66.3688 18.7188C66.3688 18.3854 66.4833 18.125 66.7125 17.9375C66.9417 17.7292 67.2229 17.625 67.5563 17.625H79.3063C79.5146 16.875 79.7542 16.1875 80.025 15.5625C80.3167 14.9375 80.6396 14.3958 80.9938 13.9375C81.3688 13.4792 81.775 13.125 82.2125 12.875C82.6708 12.6042 83.1708 12.4688 83.7125 12.4688C84.2333 12.4688 84.6813 12.6042 85.0563 12.875C85.4521 13.125 85.7854 13.4792 86.0563 13.9375C86.3271 14.3958 86.5354 14.9375 86.6813 15.5625C86.8479 16.1875 86.9729 16.875 87.0563 17.625H103.025C103.358 17.625 103.64 17.7292 103.869 17.9375C104.098 18.125 104.213 18.3854 104.213 18.7188ZM80.6813 38.1875C81.3063 36.8125 81.8688 35.3333 82.3688 33.75C82.8896 32.1458 83.3271 30.5312 83.6813 28.9062C84.0563 27.2812 84.3375 25.6875 84.525 24.125C84.7333 22.5625 84.8375 21.125 84.8375 19.8125H81.15C80.8583 21.1042 80.6188 22.7083 80.4313 24.625C80.2646 26.5208 80.1813 28.8333 80.1813 31.5625C80.1813 33.0833 80.2229 34.3646 80.3063 35.4062C80.3896 36.4271 80.5146 37.3542 80.6813 38.1875ZM83.5875 14.8125C83.4 14.8125 83.1292 15.0208 82.775 15.4375C82.4208 15.8333 82.0667 16.5625 81.7125 17.625H84.7125C84.6083 16.75 84.4521 16.0625 84.2438 15.5625C84.0563 15.0625 83.8375 14.8125 83.5875 14.8125Z" fill="black"/>
<path d="M99.5062 47.3438C99.8396 46.6354 100.225 45.875 100.662 45.0625C101.1 44.2292 101.569 43.3854 102.069 42.5312C102.569 41.6562 103.1 40.7917 103.662 39.9375C104.225 39.0833 104.808 38.2812 105.412 37.5312C106.017 36.8021 106.621 36.2812 107.225 35.9688C107.85 35.6354 108.433 35.4688 108.975 35.4688C109.517 35.4688 109.985 35.5833 110.381 35.8125C110.798 36.0208 111.131 36.3125 111.381 36.6875C111.652 37.0625 111.85 37.5 111.975 38C112.121 38.5 112.194 39.0417 112.194 39.625C112.194 40.1042 112.142 40.75 112.037 41.5625C111.954 42.3542 111.912 43.1875 111.912 44.0625C111.912 44.5625 111.933 45.0625 111.975 45.5625C112.037 46.0417 112.131 46.4792 112.256 46.875C112.402 47.25 112.61 47.5625 112.881 47.8125C113.152 48.0417 113.506 48.1562 113.944 48.1562C114.444 48.1562 114.944 48.0208 115.444 47.75C115.944 47.4583 116.433 47.0833 116.912 46.625C117.392 46.1458 117.85 45.625 118.287 45.0625C118.725 44.4792 119.121 43.9062 119.475 43.3438C119.829 42.7604 120.142 42.2083 120.412 41.6875C120.683 41.1458 120.902 40.6979 121.069 40.3438C121.277 39.8646 121.642 39.625 122.162 39.625C122.517 39.625 122.798 39.75 123.006 40C123.215 40.25 123.319 40.5208 123.319 40.8125C123.319 40.9792 123.287 41.1354 123.225 41.2812C123.142 41.4479 122.975 41.7917 122.725 42.3125C122.496 42.8333 122.173 43.4375 121.756 44.125C121.36 44.8125 120.892 45.5312 120.35 46.2812C119.808 47.0312 119.204 47.7292 118.537 48.375C117.892 49 117.183 49.5208 116.412 49.9375C115.662 50.3333 114.871 50.5312 114.037 50.5312C113.079 50.5312 112.308 50.3333 111.725 49.9375C111.142 49.5208 110.683 49 110.35 48.375C110.037 47.75 109.819 47.0521 109.694 46.2812C109.59 45.5104 109.537 44.7604 109.537 44.0312C109.537 43.6562 109.548 43.2604 109.569 42.8438C109.61 42.4062 109.652 41.9792 109.694 41.5625C109.735 41.1458 109.767 40.7604 109.787 40.4062C109.829 40.0312 109.85 39.7188 109.85 39.4688C109.85 38.8229 109.756 38.3854 109.569 38.1562C109.402 37.9271 109.204 37.8125 108.975 37.8125C108.642 37.8125 108.256 38.0104 107.819 38.4062C107.402 38.7812 106.954 39.2812 106.475 39.9062C106.017 40.5312 105.548 41.2396 105.069 42.0312C104.61 42.8021 104.162 43.5729 103.725 44.3438C103.287 45.1146 102.892 45.8542 102.537 46.5625C102.183 47.25 101.892 47.8229 101.662 48.2812C101.225 49.1562 100.777 49.7396 100.319 50.0312C99.8812 50.3438 99.4854 50.5 99.1312 50.5C98.4854 50.5 97.9854 50.25 97.6312 49.75C97.2979 49.2292 97.1312 48.6042 97.1312 47.875V45.9062C97.1312 41.9688 97.1312 38.2188 97.1312 34.6562C97.1521 31.0729 97.2042 27.75 97.2875 24.6875C97.3917 21.6042 97.5479 18.8229 97.7562 16.3438C97.9854 13.8438 98.3187 11.7188 98.7562 9.96875C99.1937 8.19792 99.7458 6.83333 100.412 5.875C101.1 4.91667 101.954 4.4375 102.975 4.4375C103.85 4.4375 104.59 4.67708 105.194 5.15625C105.798 5.63542 106.287 6.29167 106.662 7.125C107.037 7.9375 107.308 8.89583 107.475 10C107.642 11.0833 107.725 12.2292 107.725 13.4375C107.725 15.8958 107.496 18.3125 107.037 20.6875C106.6 23.0417 106.006 25.3438 105.256 27.5938C104.506 29.8438 103.631 32.0417 102.631 34.1875C101.631 36.3125 100.579 38.3854 99.475 40.4062C99.475 40.7812 99.475 41.2292 99.475 41.75C99.475 42.2708 99.475 42.7917 99.475 43.3125C99.475 43.8333 99.475 44.3229 99.475 44.7812C99.475 45.2396 99.475 45.6042 99.475 45.875L99.5062 47.3438ZM99.5062 35.8125C100.381 33.8958 101.173 32.0312 101.881 30.2188C102.61 28.3854 103.225 26.5625 103.725 24.75C104.246 22.9375 104.652 21.1042 104.944 19.25C105.235 17.375 105.381 15.4271 105.381 13.4062C105.381 13.0729 105.36 12.5417 105.319 11.8125C105.298 11.0833 105.204 10.3438 105.037 9.59375C104.892 8.84375 104.652 8.1875 104.319 7.625C104.006 7.0625 103.558 6.78125 102.975 6.78125C102.517 6.78125 102.121 7.09375 101.787 7.71875C101.454 8.32292 101.162 9.15625 100.912 10.2188C100.662 11.2604 100.454 12.4792 100.287 13.875C100.121 15.2708 99.9854 16.75 99.8812 18.3125C99.7771 19.875 99.6937 21.4792 99.6312 23.125C99.5896 24.7708 99.5583 26.375 99.5375 27.9375C99.5167 29.4792 99.5062 30.9271 99.5062 32.2812C99.5062 33.6354 99.5062 34.8125 99.5062 35.8125Z" fill="black"/>
<path d="M128.05 46.5625C128.488 47.1667 129.05 47.6562 129.738 48.0312C130.425 48.3854 131.269 48.5625 132.269 48.5625C133.29 48.5625 134.217 48.3229 135.05 47.8438C135.883 47.3438 136.644 46.6979 137.331 45.9062C138.019 45.1146 138.633 44.2292 139.175 43.25C139.717 42.2708 140.206 41.2917 140.644 40.3125C140.748 40.0833 140.894 39.9167 141.081 39.8125C141.269 39.6875 141.477 39.625 141.706 39.625C142.06 39.625 142.342 39.75 142.55 40C142.779 40.25 142.894 40.5208 142.894 40.8125C142.894 40.9167 142.883 41.0104 142.863 41.0938C142.842 41.1562 142.81 41.2292 142.769 41.3125C141.331 44.4792 139.758 46.8646 138.05 48.4688C136.363 50.0729 134.446 50.8958 132.3 50.9375C130.925 50.9375 129.738 50.6667 128.738 50.125C127.738 49.6042 126.915 48.9271 126.269 48.0938C125.623 47.2396 125.144 46.2812 124.831 45.2188C124.519 44.1562 124.363 43.0938 124.363 42.0312C124.363 40.9688 124.488 39.9896 124.738 39.0938C125.008 38.1979 125.383 37.4167 125.863 36.75C126.363 36.0833 126.946 35.5625 127.613 35.1875C128.3 34.8125 129.05 34.625 129.863 34.625C130.342 34.625 130.81 34.7292 131.269 34.9375C131.748 35.125 132.175 35.4062 132.55 35.7812C132.925 36.1354 133.227 36.5729 133.456 37.0938C133.685 37.6146 133.8 38.2083 133.8 38.875C133.8 39.7292 133.654 40.5312 133.363 41.2812C133.071 42.0312 132.665 42.7292 132.144 43.375C131.644 44.0208 131.04 44.6146 130.331 45.1562C129.623 45.6979 128.863 46.1667 128.05 46.5625ZM127.113 44.5312C127.758 44.2604 128.342 43.9167 128.863 43.5C129.404 43.0833 129.863 42.625 130.238 42.125C130.613 41.625 130.904 41.1042 131.113 40.5625C131.321 40 131.425 39.4375 131.425 38.875C131.425 38.25 131.269 37.7812 130.956 37.4688C130.644 37.1354 130.279 36.9688 129.863 36.9688C129.3 36.9688 128.821 37.125 128.425 37.4375C128.029 37.75 127.706 38.1562 127.456 38.6562C127.206 39.1562 127.019 39.7188 126.894 40.3438C126.79 40.9479 126.738 41.5521 126.738 42.1562C126.738 42.5312 126.769 42.9271 126.831 43.3438C126.915 43.7604 127.008 44.1562 127.113 44.5312Z" fill="black"/>
<path d="M147.156 37.1562C147.073 37.7188 146.969 38.25 146.844 38.75C146.719 39.2292 146.594 39.6562 146.469 40.0312C146.365 40.3854 146.271 40.6771 146.188 40.9062C146.104 41.1354 146.052 41.2604 146.031 41.2812C145.823 41.7604 145.458 42 144.938 42C144.646 42 144.375 41.8958 144.125 41.6875C143.875 41.4583 143.75 41.1771 143.75 40.8438C143.75 40.7188 143.771 40.625 143.812 40.5625C143.854 40.5 143.917 40.375 144 40.1875C144.083 40 144.188 39.6875 144.312 39.25C144.438 38.8125 144.594 38.1354 144.781 37.2188C144.427 37.2188 144.062 37.2083 143.688 37.1875C143.312 37.1667 142.969 37.0938 142.656 36.9688C142.323 36.8438 142.052 36.6458 141.844 36.375C141.635 36.1042 141.531 35.7292 141.531 35.25C141.531 34.8958 141.635 34.4167 141.844 33.8125C142.031 33.2083 142.292 32.6146 142.625 32.0312C142.958 31.4479 143.333 30.9479 143.75 30.5312C144.167 30.0938 144.583 29.875 145 29.875C145.479 29.875 145.865 30.0521 146.156 30.4062C146.469 30.7604 146.708 31.1979 146.875 31.7188C147.042 32.2188 147.156 32.75 147.219 33.3125C147.302 33.875 147.344 34.3646 147.344 34.7812C147.698 34.7812 148.042 34.7812 148.375 34.7812C148.729 34.7604 149.062 34.75 149.375 34.75C150.562 34.75 151.469 35.0104 152.094 35.5312C152.719 36.0521 153.031 36.9062 153.031 38.0938C153.031 38.5729 153 39.0729 152.938 39.5938C152.875 40.1146 152.802 40.6562 152.719 41.2188C152.635 41.7604 152.562 42.3021 152.5 42.8438C152.438 43.3854 152.406 43.9167 152.406 44.4375C152.406 45.1875 152.51 45.8125 152.719 46.3125C152.927 46.7917 153.188 47.1771 153.5 47.4688C153.812 47.7604 154.146 47.9688 154.5 48.0938C154.854 48.1979 155.177 48.25 155.469 48.25C156.365 48.25 157.208 47.9583 158 47.375C158.792 46.7917 159.521 46.0938 160.188 45.2812C160.854 44.4479 161.448 43.5729 161.969 42.6562C162.51 41.7396 162.958 40.9375 163.312 40.25C163.417 40.0625 163.562 39.9167 163.75 39.8125C163.938 39.7083 164.135 39.6562 164.344 39.6562C164.719 39.6562 165.01 39.7812 165.219 40.0312C165.427 40.2604 165.531 40.5208 165.531 40.8125C165.531 41.0208 165.49 41.2083 165.406 41.375C164.927 42.2292 164.365 43.1979 163.719 44.2812C163.094 45.3438 162.375 46.3438 161.562 47.2812C160.75 48.2188 159.833 49.0104 158.812 49.6562C157.812 50.3021 156.708 50.625 155.5 50.625C154.75 50.625 154.042 50.4792 153.375 50.1875C152.708 49.9167 152.125 49.5208 151.625 49C151.146 48.4583 150.76 47.8021 150.469 47.0312C150.177 46.2396 150.031 45.3542 150.031 44.375C150.031 43.3333 150.135 42.3021 150.344 41.2812C150.552 40.2396 150.656 39.25 150.656 38.3125C150.656 37.9167 150.562 37.625 150.375 37.4375C150.208 37.2292 149.823 37.125 149.219 37.125C148.927 37.125 148.604 37.125 148.25 37.125C147.917 37.125 147.552 37.1354 147.156 37.1562ZM145.062 34.8438C145.062 34.6979 145.052 34.5104 145.031 34.2812C145.031 34.0312 145.01 33.7917 144.969 33.5625C144.948 33.3333 144.906 33.1354 144.844 32.9688C144.802 32.8021 144.75 32.7188 144.688 32.7188C144.625 32.7188 144.542 32.8021 144.438 32.9688C144.354 33.1146 144.26 33.3021 144.156 33.5312C144.052 33.7396 143.958 33.9688 143.875 34.2188C143.792 34.4688 143.729 34.6771 143.688 34.8438H145.062Z" fill="black"/>
<path d="M266.4 3C266.358 3.3125 266.223 3.5625 265.994 3.75C265.765 3.9375 265.504 4.03125 265.212 4.03125C265.171 4.03125 265.098 4.03125 264.994 4.03125C264.89 4.01042 264.65 4 264.275 4C263.879 4 263.369 4.04167 262.744 4.125C262.14 4.20833 261.462 4.38542 260.712 4.65625C259.983 4.90625 259.212 5.28125 258.4 5.78125C257.608 6.28125 256.827 6.95833 256.056 7.8125C255.285 8.64583 254.556 9.6875 253.869 10.9375C253.181 12.1667 252.598 13.6562 252.119 15.4062C251.869 16.2812 251.577 17.5417 251.244 19.1875C250.931 20.8125 250.587 22.6458 250.212 24.6875C249.858 26.7292 249.494 28.9062 249.119 31.2188C248.765 33.5312 248.421 35.8021 248.087 38.0312C247.775 40.2604 247.483 42.3854 247.212 44.4062C246.942 46.4062 246.733 48.125 246.587 49.5625C246.546 49.8333 246.421 50.0729 246.212 50.2812C246.025 50.5104 245.785 50.625 245.494 50.625C245.202 50.625 244.942 50.5521 244.712 50.4062C244.504 50.2604 244.358 50.0417 244.275 49.75C244.004 48.75 243.577 47.3646 242.994 45.5938C242.41 43.8229 241.733 41.8333 240.962 39.625C240.212 37.3958 239.39 35.0312 238.494 32.5312C237.598 30.0312 236.702 27.5625 235.806 25.125C234.931 22.6667 234.077 20.3229 233.244 18.0938C232.431 15.8438 231.712 13.8646 231.087 12.1562C230.983 13.3229 230.817 14.625 230.587 16.0625C230.379 17.4792 230.087 19.0104 229.712 20.6562C229.358 22.2812 228.91 24.0104 228.369 25.8438C227.827 27.6562 227.181 29.5417 226.431 31.5C225.265 34.5 223.89 37.0625 222.306 39.1875C220.744 41.3125 219.098 43.0833 217.369 44.5C215.64 45.9167 213.879 47.0417 212.087 47.875C210.317 48.6875 208.65 49.3021 207.087 49.7188C205.525 50.1354 204.119 50.3958 202.869 50.5C201.619 50.625 200.66 50.6875 199.994 50.6875C197.702 50.6875 195.587 50.3854 193.65 49.7812C191.733 49.1771 190.067 48.3229 188.65 47.2188C187.254 46.0938 186.16 44.7604 185.369 43.2188C184.598 41.6562 184.212 39.9375 184.212 38.0625C184.212 36.375 184.587 34.8021 185.337 33.3438C186.108 31.8646 187.129 30.5833 188.4 29.5C189.692 28.4167 191.16 27.5625 192.806 26.9375C194.473 26.3125 196.202 26 197.994 26C199.473 26 200.796 26.1458 201.962 26.4375C203.15 26.7292 204.192 27.1042 205.087 27.5625C206.004 28 206.785 28.4792 207.431 29C208.098 29.5208 208.64 30.0208 209.056 30.5C209.494 30.9583 209.817 31.3542 210.025 31.6875C210.254 32.0208 210.39 32.2188 210.431 32.2812C210.515 32.4479 210.556 32.6354 210.556 32.8438C210.556 33.1354 210.442 33.4062 210.212 33.6562C210.004 33.9062 209.723 34.0312 209.369 34.0312C208.91 34.0312 208.567 33.8229 208.337 33.4062C208.317 33.3438 208.108 33.0521 207.712 32.5312C207.337 31.9896 206.744 31.4062 205.931 30.7812C205.14 30.1562 204.108 29.5938 202.837 29.0938C201.567 28.5729 200.025 28.3125 198.212 28.3125C196.733 28.3125 195.285 28.5625 193.869 29.0625C192.473 29.5625 191.233 30.25 190.15 31.125C189.067 32 188.192 33.0417 187.525 34.25C186.879 35.4375 186.556 36.7292 186.556 38.125C186.556 39.6458 186.91 41.0417 187.619 42.3125C188.327 43.5625 189.285 44.6354 190.494 45.5312C191.723 46.4271 193.14 47.125 194.744 47.625C196.369 48.1042 198.098 48.3438 199.931 48.3438C200.64 48.3438 201.577 48.2917 202.744 48.1875C203.91 48.0833 205.212 47.8438 206.65 47.4688C208.108 47.0938 209.64 46.5312 211.244 45.7812C212.848 45.0104 214.431 43.9688 215.994 42.6562C217.556 41.3438 219.046 39.7083 220.462 37.75C221.9 35.7917 223.16 33.4167 224.244 30.625C225.369 27.75 226.244 25.0208 226.869 22.4375C227.515 19.8333 227.994 17.4896 228.306 15.4062C228.619 13.3229 228.806 11.5521 228.869 10.0938C228.952 8.61458 228.994 7.5625 228.994 6.9375V6.3125C228.994 5.97917 229.098 5.69792 229.306 5.46875C229.535 5.21875 229.827 5.09375 230.181 5.09375C230.702 5.09375 231.067 5.35417 231.275 5.875C231.337 6.02083 231.515 6.51042 231.806 7.34375C232.119 8.17708 232.515 9.26042 232.994 10.5938C233.494 11.9062 234.056 13.4271 234.681 15.1562C235.327 16.8854 236.004 18.7292 236.712 20.6875C237.421 22.625 238.15 24.6354 238.9 26.7188C239.65 28.8021 240.379 30.8542 241.087 32.875C241.817 34.8958 242.504 36.8438 243.15 38.7188C243.796 40.5938 244.379 42.3021 244.9 43.8438C245.129 42.1771 245.379 40.4167 245.65 38.5625C245.921 36.6875 246.202 34.8021 246.494 32.9062C246.806 30.9896 247.108 29.1146 247.4 27.2812C247.712 25.4479 248.015 23.7292 248.306 22.125C248.619 20.5208 248.9 19.0833 249.15 17.8125C249.4 16.5417 249.629 15.5208 249.837 14.75C250.296 12.9167 250.952 11.2083 251.806 9.625C252.66 8.02083 253.692 6.625 254.9 5.4375C256.129 4.25 257.525 3.32292 259.087 2.65625C260.671 1.96875 262.421 1.625 264.337 1.625C265.067 1.625 265.587 1.70833 265.9 1.875C266.233 2.04167 266.4 2.36458 266.4 2.84375V3Z" fill="black"/>
<path d="M270.225 46.5C269.496 47.6875 268.642 48.625 267.663 49.3125C266.704 50 265.735 50.3438 264.756 50.3438C263.965 50.3438 263.256 50.1979 262.631 49.9062C262.006 49.6146 261.465 49.2083 261.006 48.6875C260.548 48.1458 260.194 47.5 259.944 46.75C259.715 46 259.6 45.1562 259.6 44.2188C259.6 42.7604 259.735 41.4688 260.006 40.3438C260.298 39.2188 260.61 38.2812 260.944 37.5312C261.277 36.7604 261.59 36.1771 261.881 35.7812C262.173 35.3854 262.319 35.1875 262.319 35.1875C262.423 35.0625 262.548 34.9688 262.694 34.9062C262.86 34.8438 263.027 34.8125 263.194 34.8125C263.527 34.8125 263.798 34.9375 264.006 35.1875C264.235 35.4167 264.35 35.6875 264.35 36C264.35 36.125 264.319 36.25 264.256 36.375C264.215 36.5 264.163 36.625 264.1 36.75C263.996 36.9375 263.829 37.2292 263.6 37.625C263.371 38 263.131 38.5 262.881 39.125C262.631 39.75 262.413 40.4896 262.225 41.3438C262.038 42.1771 261.944 43.1354 261.944 44.2188C261.944 45.4479 262.183 46.3854 262.663 47.0312C263.163 47.6562 263.86 47.9688 264.756 47.9688C265.131 47.9688 265.558 47.8542 266.038 47.625C266.538 47.375 267.017 47 267.475 46.5C267.954 46 268.371 45.3646 268.725 44.5938C269.079 43.8229 269.308 42.9167 269.413 41.875L269.881 36.5C269.923 36.1875 270.058 35.9271 270.288 35.7188C270.517 35.5104 270.788 35.4062 271.1 35.4062C271.454 35.4062 271.735 35.5417 271.944 35.8125C272.152 36.0625 272.256 36.3542 272.256 36.6875L271.85 41.875C271.808 42.3125 271.819 42.8854 271.881 43.5938C271.965 44.3021 272.121 45 272.35 45.6875C272.579 46.375 272.923 46.9688 273.381 47.4688C273.84 47.9479 274.444 48.1875 275.194 48.1875C275.735 48.1875 276.267 48.0521 276.788 47.7812C277.308 47.4896 277.808 47.1146 278.288 46.6562C278.767 46.1979 279.204 45.6875 279.6 45.125C280.017 44.5417 280.392 43.9583 280.725 43.375C281.079 42.7917 281.381 42.2396 281.631 41.7188C281.881 41.1771 282.09 40.7188 282.256 40.3438C282.36 40.1146 282.506 39.9375 282.694 39.8125C282.881 39.6875 283.09 39.625 283.319 39.625C283.694 39.625 283.985 39.75 284.194 40C284.402 40.25 284.506 40.5208 284.506 40.8125C284.506 40.9792 284.475 41.1354 284.413 41.2812C284.329 41.4479 284.163 41.8021 283.913 42.3438C283.683 42.8646 283.371 43.4688 282.975 44.1562C282.6 44.8229 282.142 45.5312 281.6 46.2812C281.058 47.0312 280.454 47.7292 279.788 48.375C279.121 49 278.392 49.5208 277.6 49.9375C276.829 50.3333 275.996 50.5312 275.1 50.5312C273.871 50.5312 272.85 50.1875 272.038 49.5C271.225 48.7917 270.621 47.7917 270.225 46.5Z" fill="black"/>
<path d="M292.425 47.1875C292.758 46.5 293.144 45.75 293.581 44.9375C294.019 44.1042 294.487 43.2708 294.987 42.4375C295.487 41.5833 296.008 40.7396 296.55 39.9062C297.112 39.0729 297.696 38.2812 298.3 37.5312C298.904 36.8021 299.508 36.2812 300.112 35.9688C300.737 35.6354 301.321 35.4688 301.862 35.4688C302.946 35.4688 303.748 35.8646 304.269 36.6562C304.79 37.4479 305.05 38.4271 305.05 39.5938C305.05 39.8646 305.029 40.1979 304.987 40.5938C304.967 40.9688 304.935 41.375 304.894 41.8125C304.873 42.25 304.842 42.6979 304.8 43.1562C304.779 43.5938 304.769 44.0104 304.769 44.4062C304.769 44.9062 304.79 45.3854 304.831 45.8438C304.894 46.3021 304.998 46.7083 305.144 47.0625C305.29 47.3958 305.498 47.6667 305.769 47.875C306.04 48.0625 306.394 48.1562 306.831 48.1562C307.623 48.1562 308.394 47.8542 309.144 47.25C309.894 46.625 310.581 45.8958 311.206 45.0625C311.852 44.2083 312.404 43.3438 312.862 42.4688C313.342 41.5938 313.696 40.8854 313.925 40.3438C314.029 40.1146 314.175 39.9375 314.362 39.8125C314.571 39.6875 314.79 39.625 315.019 39.625C315.373 39.625 315.654 39.7604 315.862 40.0312C316.092 40.2812 316.206 40.5521 316.206 40.8438C316.206 40.9896 316.175 41.1354 316.112 41.2812C316.029 41.4479 315.862 41.7917 315.612 42.3125C315.362 42.8333 315.029 43.4375 314.612 44.125C314.217 44.7917 313.748 45.5104 313.206 46.2812C312.665 47.0312 312.06 47.7188 311.394 48.3438C310.748 48.9688 310.04 49.4896 309.269 49.9062C308.519 50.3229 307.727 50.5312 306.894 50.5312C305.956 50.5312 305.196 50.3542 304.612 50C304.029 49.625 303.571 49.1458 303.237 48.5625C302.904 47.9583 302.675 47.3021 302.55 46.5938C302.446 45.8646 302.394 45.1354 302.394 44.4062C302.394 44.0938 302.404 43.7396 302.425 43.3438C302.467 42.9479 302.508 42.5312 302.55 42.0938C302.612 41.6562 302.654 41.2188 302.675 40.7812C302.717 40.3438 302.737 39.9271 302.737 39.5312C302.737 38.8646 302.633 38.4167 302.425 38.1875C302.217 37.9375 302.029 37.8125 301.862 37.8125C301.529 37.8125 301.144 38.0104 300.706 38.4062C300.29 38.7812 299.842 39.2812 299.362 39.9062C298.904 40.5312 298.425 41.2396 297.925 42.0312C297.446 42.8021 296.987 43.5729 296.55 44.3438C296.133 45.1146 295.737 45.8542 295.362 46.5625C295.008 47.25 294.727 47.8229 294.519 48.2812C294.102 49.1562 293.685 49.7396 293.269 50.0312C292.852 50.3438 292.425 50.5 291.987 50.5C291.383 50.5 290.894 50.3229 290.519 49.9688C290.165 49.5938 289.987 49.0729 289.987 48.4062C289.987 48.2604 290.008 47.9792 290.05 47.5625C290.092 47.125 290.144 46.6146 290.206 46.0312C290.269 45.4271 290.331 44.7812 290.394 44.0938C290.456 43.4062 290.519 42.7292 290.581 42.0625C290.644 41.375 290.696 40.7396 290.737 40.1562C290.779 39.5729 290.8 39.0833 290.8 38.6875C290.8 38.1667 290.779 37.6667 290.737 37.1875C290.696 36.7083 290.612 36.4167 290.487 36.3125C290.3 36.375 289.967 36.7708 289.487 37.5C289.008 38.2083 288.394 39.4688 287.644 41.2812C287.54 41.5104 287.383 41.6875 287.175 41.8125C286.967 41.9375 286.748 42 286.519 42C286.165 42 285.883 41.8854 285.675 41.6562C285.467 41.4062 285.362 41.125 285.362 40.8125C285.362 40.6667 285.394 40.5104 285.456 40.3438C286.394 38.1146 287.269 36.4792 288.081 35.4375C288.915 34.375 289.737 33.8438 290.55 33.8438C291.029 33.8438 291.435 33.9688 291.769 34.2188C292.102 34.4479 292.362 34.7604 292.55 35.1562C292.758 35.5521 292.904 35.9896 292.987 36.4688C293.092 36.9479 293.144 37.4375 293.144 37.9375C293.144 38.3125 293.112 38.8958 293.05 39.6875C293.008 40.4792 292.946 41.3333 292.862 42.25C292.779 43.1458 292.696 44.0417 292.612 44.9375C292.55 45.8333 292.487 46.5833 292.425 47.1875Z" fill="black"/>
<path d="M320.938 46.5625C321.375 47.1667 321.938 47.6562 322.625 48.0312C323.312 48.3854 324.156 48.5625 325.156 48.5625C326.177 48.5625 327.104 48.3229 327.938 47.8438C328.771 47.3438 329.531 46.6979 330.219 45.9062C330.906 45.1146 331.521 44.2292 332.062 43.25C332.604 42.2708 333.094 41.2917 333.531 40.3125C333.635 40.0833 333.781 39.9167 333.969 39.8125C334.156 39.6875 334.365 39.625 334.594 39.625C334.948 39.625 335.229 39.75 335.438 40C335.667 40.25 335.781 40.5208 335.781 40.8125C335.781 40.9167 335.771 41.0104 335.75 41.0938C335.729 41.1562 335.698 41.2292 335.656 41.3125C334.219 44.4792 332.646 46.8646 330.938 48.4688C329.25 50.0729 327.333 50.8958 325.188 50.9375C323.812 50.9375 322.625 50.6667 321.625 50.125C320.625 49.6042 319.802 48.9271 319.156 48.0938C318.51 47.2396 318.031 46.2812 317.719 45.2188C317.406 44.1562 317.25 43.0938 317.25 42.0312C317.25 40.9688 317.375 39.9896 317.625 39.0938C317.896 38.1979 318.271 37.4167 318.75 36.75C319.25 36.0833 319.833 35.5625 320.5 35.1875C321.188 34.8125 321.938 34.625 322.75 34.625C323.229 34.625 323.698 34.7292 324.156 34.9375C324.635 35.125 325.062 35.4062 325.438 35.7812C325.812 36.1354 326.115 36.5729 326.344 37.0938C326.573 37.6146 326.688 38.2083 326.688 38.875C326.688 39.7292 326.542 40.5312 326.25 41.2812C325.958 42.0312 325.552 42.7292 325.031 43.375C324.531 44.0208 323.927 44.6146 323.219 45.1562C322.51 45.6979 321.75 46.1667 320.938 46.5625ZM320 44.5312C320.646 44.2604 321.229 43.9167 321.75 43.5C322.292 43.0833 322.75 42.625 323.125 42.125C323.5 41.625 323.792 41.1042 324 40.5625C324.208 40 324.312 39.4375 324.312 38.875C324.312 38.25 324.156 37.7812 323.844 37.4688C323.531 37.1354 323.167 36.9688 322.75 36.9688C322.188 36.9688 321.708 37.125 321.312 37.4375C320.917 37.75 320.594 38.1562 320.344 38.6562C320.094 39.1562 319.906 39.7188 319.781 40.3438C319.677 40.9479 319.625 41.5521 319.625 42.1562C319.625 42.5312 319.656 42.9271 319.719 43.3438C319.802 43.7604 319.896 44.1562 320 44.5312Z" fill="black"/>
<path d="M340.231 38.4375C340.106 38.7708 339.95 39.1458 339.763 39.5625C339.596 39.9792 339.398 40.4167 339.169 40.875C338.981 41.2292 338.783 41.5104 338.575 41.7188C338.388 41.9062 338.138 42 337.825 42C337.471 42 337.19 41.8958 336.981 41.6875C336.773 41.4583 336.669 41.1979 336.669 40.9062C336.669 40.8021 336.679 40.7188 336.7 40.6562C336.721 40.5729 336.773 40.4479 336.856 40.2812C337.398 39.2396 337.794 38.3333 338.044 37.5625C338.315 36.7708 338.533 35.9479 338.7 35.0938C338.554 34.6146 338.45 34.2083 338.388 33.875C338.325 33.5417 338.294 33.1979 338.294 32.8438C338.294 32.1562 338.44 31.6042 338.731 31.1875C339.023 30.75 339.429 30.5312 339.95 30.5312C340.429 30.5312 340.804 30.7396 341.075 31.1562C341.367 31.5729 341.513 32.0833 341.513 32.6875C341.513 33.0208 341.481 33.3542 341.419 33.6875C341.356 34.0208 341.273 34.4375 341.169 34.9375C341.648 36.125 342.127 37.1771 342.606 38.0938C343.085 39.0104 343.513 39.8542 343.888 40.625C344.263 41.375 344.565 42.0833 344.794 42.75C345.044 43.4167 345.169 44.0833 345.169 44.75C345.169 45.625 344.992 46.4583 344.638 47.25C344.283 48.0417 343.7 48.7083 342.888 49.25C342.992 49.2708 343.096 49.2812 343.2 49.2812C343.304 49.2812 343.408 49.2812 343.513 49.2812C344.7 49.2812 345.794 49.0104 346.794 48.4688C347.794 47.9271 348.69 47.2292 349.481 46.375C350.294 45.5 351.013 44.5417 351.638 43.5C352.263 42.4375 352.804 41.3854 353.263 40.3438C353.471 39.8646 353.763 39.625 354.138 39.625C354.492 39.625 354.763 39.75 354.95 40C355.158 40.25 355.263 40.5208 355.263 40.8125C355.263 40.9792 355.231 41.1354 355.169 41.2812C354.94 41.8438 354.638 42.4896 354.263 43.2188C353.908 43.9271 353.471 44.6667 352.95 45.4375C352.45 46.1875 351.867 46.9271 351.2 47.6562C350.533 48.3854 349.783 49.0417 348.95 49.625C348.138 50.1875 347.242 50.6354 346.263 50.9688C345.283 51.3229 344.21 51.5 343.044 51.5C341.648 51.5 340.346 51.25 339.138 50.75C337.95 50.2708 336.981 49.4688 336.231 48.3438C336.106 48.1562 336.044 47.9583 336.044 47.75C336.044 47.4375 336.158 47.1667 336.388 46.9375C336.638 46.6875 336.919 46.5625 337.231 46.5625C337.565 46.5625 337.846 46.6771 338.075 46.9062C338.096 46.9479 338.169 47.0208 338.294 47.125C338.419 47.2083 338.565 47.3125 338.731 47.4375C338.919 47.5417 339.127 47.6354 339.356 47.7188C339.606 47.8021 339.856 47.8438 340.106 47.8438C340.606 47.8438 341.023 47.7396 341.356 47.5312C341.71 47.3229 341.992 47.0729 342.2 46.7812C342.408 46.4688 342.554 46.1458 342.638 45.8125C342.742 45.4583 342.794 45.1562 342.794 44.9062C342.794 44.3854 342.71 43.8646 342.544 43.3438C342.377 42.8229 342.158 42.3021 341.888 41.7812C341.638 41.2604 341.356 40.7292 341.044 40.1875C340.752 39.625 340.481 39.0417 340.231 38.4375Z" fill="black"/>
</g>
<defs>
<filter id="filter0_d_41_736" x="0.875" y="0.625" width="357.388" height="56.0625" filterUnits="userSpaceOnUse" color-interpolation-filters="sRGB">
<feFlood flood-opacity="0" result="BackgroundImageFix"/>
<feColorMatrix in="SourceAlpha" type="matrix" values="0 0 0 0 0 0 0 0 0 0 0 0 0 0 0 0 0 0 127 0" result="hardAlpha"/>
<feOffset dy="2"/>
<feGaussianBlur stdDeviation="1.5"/>
<feComposite in2="hardAlpha" operator="out"/>
<feColorMatrix type="matrix" values="0 0 0 0 0.180392 0 0 0 0 0.180392 0 0 0 0 0.180392 0 0 0 0.25 0"/>
<feBlend mode="normal" in2="BackgroundImageFix" result="effect1_dropShadow_41_736"/>
<feBlend mode="normal" in="SourceGraphic" in2="effect1_dropShadow_41_736" result="shape"/>
</filter>
</defs>
</svg>
