<svg width="20" height="20" viewBox="0 0 20 20" fill="none" xmlns="http://www.w3.org/2000/svg">
<path d="M18.6847 16.9377L15.1691 8.42204C15.1042 8.26478 14.994 8.13033 14.8526 8.03573C14.7112 7.94113 14.5449 7.89062 14.3748 7.89062C14.2047 7.89062 14.0383 7.94113 13.8969 8.03573C13.7555 8.13033 13.6454 8.26478 13.5805 8.42204L10.0648 16.9377C10.0211 17.0421 9.99846 17.1541 9.99817 17.2673C9.99789 17.3806 10.02 17.4927 10.0632 17.5974C10.1064 17.702 10.1698 17.7971 10.2498 17.8771C10.3299 17.9572 10.425 18.0207 10.5296 18.0639C10.6343 18.1071 10.7464 18.1292 10.8596 18.1289C10.9728 18.1286 11.0849 18.106 11.1893 18.0623C11.2937 18.0186 11.3885 17.9547 11.4682 17.8742C11.5478 17.7938 11.6108 17.6984 11.6535 17.5935L12.3695 15.8595H16.3801L17.0961 17.5935C17.161 17.7509 17.2711 17.8854 17.4126 17.98C17.554 18.0747 17.7204 18.1252 17.8906 18.1252C18.0318 18.1251 18.1708 18.0902 18.2954 18.0236C18.4199 17.957 18.5261 17.8608 18.6046 17.7434C18.683 17.626 18.7314 17.491 18.7453 17.3505C18.7592 17.21 18.7383 17.0682 18.6844 16.9377H18.6847ZM13.0793 14.1408L14.375 11.0021L15.6707 14.1408H13.0793Z" fill="url(#paint0_linear_41_760)"/>
<path d="M10.4625 13.3953C10.596 13.2109 10.6509 12.981 10.6151 12.7562C10.5793 12.5313 10.4557 12.3299 10.2715 12.1961C10.2637 12.1902 9.68555 11.7613 8.84609 10.8395C10.3949 8.74258 11.2723 6.35703 11.6301 5.23437H12.8906C13.1185 5.23437 13.3371 5.14383 13.4983 4.98267C13.6595 4.82151 13.75 4.60292 13.75 4.375C13.75 4.14708 13.6595 3.92849 13.4983 3.76733C13.3371 3.60617 13.1185 3.51562 12.8906 3.51562H8.35938V2.73437C8.35938 2.50645 8.26883 2.28787 8.10767 2.12671C7.94651 1.96554 7.72792 1.875 7.5 1.875C7.27208 1.875 7.05349 1.96554 6.89233 2.12671C6.73117 2.28787 6.64062 2.50645 6.64062 2.73437V3.51562H2.10938C1.88145 3.51562 1.66287 3.60617 1.50171 3.76733C1.34054 3.92849 1.25 4.14708 1.25 4.375C1.25 4.60292 1.34054 4.82151 1.50171 4.98267C1.66287 5.14383 1.88145 5.23437 2.10938 5.23437H9.81445C9.44258 6.28711 8.75781 7.94922 7.71328 9.46719C6.48633 7.83906 6.03047 6.78555 6.02695 6.77695C5.93713 6.56937 5.76909 6.40557 5.55928 6.32107C5.34947 6.23658 5.11481 6.23821 4.9062 6.3256C4.69758 6.413 4.53183 6.57911 4.44489 6.78792C4.35795 6.99673 4.35684 7.23139 4.4418 7.44102C4.46445 7.49492 5.01016 8.77812 6.50664 10.7195C6.54258 10.766 6.57812 10.8113 6.61367 10.8566C5.08086 12.5891 3.57695 13.6637 2.94766 14.0105C2.74755 14.1197 2.599 14.3039 2.53468 14.5225C2.47036 14.7412 2.49554 14.9765 2.60469 15.1766C2.71383 15.3767 2.89799 15.5252 3.11666 15.5895C3.33533 15.6539 3.5706 15.6287 3.7707 15.5195C3.85508 15.4734 5.66914 14.4691 7.74063 12.1762C8.62031 13.1168 9.225 13.5605 9.26133 13.5863C9.35273 13.6527 9.45633 13.7004 9.5662 13.7268C9.67606 13.7531 9.79004 13.7575 9.9016 13.7397C10.0132 13.7219 10.1201 13.6823 10.2164 13.6231C10.3126 13.564 10.3963 13.4864 10.4625 13.3949V13.3953Z" fill="url(#paint1_linear_41_760)"/>
<defs>
<linearGradient id="paint0_linear_41_760" x1="18.7495" y1="13.0098" x2="9.99817" y2="13.0098" gradientUnits="userSpaceOnUse">
<stop stop-color="#663C28"/>
<stop offset="1" stop-color="#D8AC88"/>
</linearGradient>
<linearGradient id="paint1_linear_41_760" x1="13.75" y1="8.74973" x2="1.25" y2="8.74973" gradientUnits="userSpaceOnUse">
<stop stop-color="#663C28"/>
<stop offset="1" stop-color="#D8AC88"/>
</linearGradient>
</defs>
</svg>
