<svg width="17" height="22" viewBox="0 0 17 22" fill="none" xmlns="http://www.w3.org/2000/svg">
<path d="M7.92218 0.0190239C5.18756 0.205898 2.7253 1.66316 1.27756 3.95418C0.853474 4.62441 0.520786 5.36832 0.310571 6.11762C-0.246956 8.10676 -0.0495366 10.2109 0.868098 12.0383C1.21724 12.7337 1.5481 13.2243 2.1038 13.8711C2.16595 13.9448 3.48025 15.6249 5.02122 17.6032C6.69928 19.7577 7.86369 21.2365 7.92401 21.2904C8.26401 21.5959 8.73197 21.5959 9.07197 21.2904C9.13229 21.2365 10.2967 19.7577 11.9748 17.6032C13.5157 15.6249 14.83 13.9448 14.8922 13.8711C15.4479 13.2243 15.7787 12.7337 16.1279 12.0383C17.1625 9.9773 17.2777 7.54254 16.4459 5.39887C15.8007 3.74035 14.6783 2.36395 13.1593 1.37027C11.6512 0.383789 9.75197 -0.104961 7.92218 0.0190239ZM8.94401 4.06918C9.35347 4.12129 9.67154 4.21473 10.0426 4.39262C11.0535 4.87418 11.7444 5.75105 11.9839 6.86152C12.0296 7.06996 12.0333 7.12207 12.0351 7.51918C12.0351 7.99895 12.0168 8.1391 11.9071 8.51645C11.6128 9.52449 10.8359 10.3708 9.84154 10.7679C9.47412 10.9153 9.17433 10.9836 8.75939 11.0177C8.22197 11.0626 7.67541 10.9764 7.15444 10.7679C6.16003 10.3708 5.38315 9.52449 5.08885 8.51645C4.97917 8.1391 4.96089 7.99895 4.96089 7.51918C4.96272 7.12207 4.96638 7.06996 5.01208 6.86152C5.21681 5.91457 5.75423 5.12754 6.55122 4.61184C6.87476 4.4034 7.35003 4.20395 7.71562 4.12488C8.09767 4.04223 8.56928 4.02066 8.94401 4.06918Z" fill="#DEDEDE"/>
</svg>
