<svg width="38" height="38" viewBox="0 0 38 38" fill="none" xmlns="http://www.w3.org/2000/svg">
<path d="M26.9164 3.16638C29.0142 3.17265 31.0244 4.00879 32.5078 5.49221C33.9912 6.97562 34.8274 8.98576 34.8336 11.0836V26.9164C34.8274 29.0142 33.9912 31.0244 32.5078 32.5078C31.0244 33.9912 29.0142 34.8274 26.9164 34.8336H11.0836C8.98576 34.8274 6.97562 33.9912 5.49221 32.5078C4.00879 31.0244 3.17265 29.0142 3.16638 26.9164V11.0836C3.17265 8.98576 4.00879 6.97562 5.49221 5.49221C6.97562 4.00879 8.98576 3.17265 11.0836 3.16638H26.9164V3.16638ZM26.9164 0H11.0836C4.9875 0 0 4.9875 0 11.0836V26.9164C0 33.0125 4.9875 38 11.0836 38H26.9164C33.0125 38 38 33.0125 38 26.9164V11.0836C38 4.9875 33.0125 0 26.9164 0V0Z" fill="url(#paint0_linear_42_833)"/>
<path d="M32.3636 10.3637C32.022 10.3637 31.6881 10.2624 31.404 10.0726C31.12 9.88283 30.8986 9.61307 30.7678 9.29745C30.6371 8.98183 30.6029 8.63453 30.6695 8.29948C30.7362 7.96442 30.9007 7.65665 31.1423 7.41509C31.3838 7.17352 31.6916 7.00902 32.0266 6.94237C32.3617 6.87572 32.709 6.90993 33.0246 7.04066C33.3402 7.17139 33.61 7.39278 33.7998 7.67683C33.9896 7.96088 34.0909 8.29483 34.0909 8.63645C34.0914 8.86342 34.047 9.08824 33.9604 9.29803C33.8738 9.50781 33.7466 9.69841 33.5861 9.8589C33.4256 10.0194 33.235 10.1466 33.0252 10.2332C32.8154 10.3199 32.5906 10.3642 32.3636 10.3637V10.3637Z" fill="url(#paint1_linear_42_833)"/>
<path d="M19 13.2418C20.1388 13.2418 21.252 13.5795 22.1989 14.2122C23.1458 14.8449 23.8838 15.7441 24.3196 16.7962C24.7554 17.8483 24.8694 19.006 24.6472 20.1229C24.425 21.2398 23.8767 22.2658 23.0714 23.071C22.2662 23.8763 21.2402 24.4247 20.1233 24.6468C19.0064 24.869 17.8487 24.755 16.7966 24.3192C15.7445 23.8834 14.8452 23.1454 14.2126 22.1985C13.5799 21.2517 13.2422 20.1384 13.2422 18.9996C13.2438 17.4731 13.851 16.0095 14.9304 14.93C16.0099 13.8506 17.4734 13.2434 19 13.2418V13.2418ZM19 10.3633C17.2919 10.3633 15.6222 10.8698 14.2019 11.8188C12.7817 12.7677 11.6747 14.1166 11.0211 15.6946C10.3674 17.2727 10.1964 19.0092 10.5296 20.6845C10.8628 22.3598 11.6854 23.8987 12.8932 25.1065C14.101 26.3143 15.6399 27.1368 17.3151 27.4701C18.9904 27.8033 20.7269 27.6323 22.305 26.9786C23.8831 26.3249 25.2319 25.218 26.1809 23.7977C27.1299 22.3775 27.6364 20.7078 27.6364 18.9996C27.6364 16.7091 26.7265 14.5124 25.1068 12.8928C23.4872 11.2732 21.2905 10.3633 19 10.3633V10.3633Z" fill="url(#paint2_linear_42_833)"/>
<defs>
<linearGradient id="paint0_linear_42_833" x1="38" y1="19" x2="7.29924e-08" y2="19" gradientUnits="userSpaceOnUse">
<stop stop-color="#663C28"/>
<stop offset="1" stop-color="#D8AC88"/>
</linearGradient>
<linearGradient id="paint1_linear_42_833" x1="34.0909" y1="8.63645" x2="30.6364" y2="8.63645" gradientUnits="userSpaceOnUse">
<stop stop-color="#663C28"/>
<stop offset="1" stop-color="#D8AC88"/>
</linearGradient>
<linearGradient id="paint2_linear_42_833" x1="27.6364" y1="18.9996" x2="10.3636" y2="18.9996" gradientUnits="userSpaceOnUse">
<stop stop-color="#663C28"/>
<stop offset="1" stop-color="#D8AC88"/>
</linearGradient>
</defs>
</svg>
