<svg width="38" height="32" viewBox="0 0 38 32" fill="none" xmlns="http://www.w3.org/2000/svg">
<path d="M33.25 0H4.75C3.49063 0.00140282 2.28324 0.522978 1.39273 1.45028C0.502225 2.37759 0.00134716 3.63488 0 4.94628V26.1446C0.00134716 27.456 0.502225 28.7133 1.39273 29.6406C2.28324 30.5679 3.49063 31.0895 4.75 31.0909H33.25C34.5094 31.0895 35.7168 30.5679 36.6073 29.6406C37.4978 28.7133 37.9987 27.456 38 26.1446V4.94628C37.9987 3.63488 37.4978 2.37759 36.6073 1.45028C35.7168 0.522978 34.5094 0.00140282 33.25 0V0ZM32.0472 8.18168L19.8329 18.0742C19.5948 18.2671 19.3017 18.3717 19 18.3717C18.6983 18.3717 18.4052 18.2671 18.1671 18.0742L5.95277 8.18168C5.80926 8.06883 5.68872 7.9274 5.59816 7.76562C5.50759 7.60384 5.44881 7.42493 5.42522 7.23929C5.40163 7.05365 5.41371 6.86497 5.46075 6.68423C5.50779 6.50349 5.58885 6.33429 5.69924 6.18646C5.80962 6.03862 5.94711 5.91511 6.10373 5.82309C6.26035 5.73107 6.43297 5.67238 6.61156 5.65043C6.79015 5.62848 6.97115 5.64371 7.14404 5.69523C7.31693 5.74675 7.47826 5.83354 7.61866 5.95055L19 15.1683L30.3813 5.95055C30.6659 5.72675 31.0237 5.6286 31.3772 5.67731C31.7308 5.72603 32.0517 5.9177 32.2706 6.21087C32.4895 6.50405 32.5888 6.87517 32.547 7.24397C32.5052 7.61278 32.3257 7.94963 32.0472 8.18168Z" fill="url(#paint0_linear_41_764)"/>
<defs>
<linearGradient id="paint0_linear_41_764" x1="38" y1="15.5455" x2="7.29924e-08" y2="15.5455" gradientUnits="userSpaceOnUse">
<stop stop-color="#663C28"/>
<stop offset="1" stop-color="#D8AC88"/>
</linearGradient>
</defs>
</svg>
