<svg width="38" height="38" viewBox="0 0 38 38" fill="none" xmlns="http://www.w3.org/2000/svg">
<path fill-rule="evenodd" clip-rule="evenodd" d="M32.4637 5.52195C30.7071 3.76451 28.6202 2.37187 26.3232 1.42419C24.0262 0.47652 21.5645 -0.00746972 19.0797 8.7145e-05C8.65177 8.7145e-05 0.162857 8.44659 0.158616 18.8304C0.154003 22.1368 1.02557 25.3855 2.68459 28.2456L0 38L10.0301 35.3816C12.8065 36.8856 15.9144 37.6728 19.0721 37.6717H19.0797C29.5068 37.6717 37.9949 29.2244 37.9999 18.8414C38.0063 16.3651 37.52 13.9123 36.5696 11.6256C35.6191 9.33898 34.2234 7.26418 32.4637 5.52195V5.52195ZM19.0797 34.4935H19.0729C16.258 34.4943 13.4943 33.741 11.0692 32.3119L10.4949 31.9726L4.54303 33.5265L6.13173 27.7511L5.75767 27.1573C4.18371 24.6654 3.3498 21.7778 3.35299 18.8304C3.35299 10.2015 10.411 3.18088 19.0856 3.18088C23.247 3.17345 27.2408 4.81923 30.1888 7.75624C33.1368 10.6933 34.7975 14.681 34.8056 18.8423C34.8022 27.472 27.7476 34.4935 19.0797 34.4935ZM27.7052 22.772C27.2327 22.5362 24.9061 21.3979 24.4752 21.241C24.0443 21.0841 23.7262 21.0052 23.4115 21.4768C23.0968 21.9484 22.1901 23.0036 21.9144 23.3217C21.6388 23.6398 21.3631 23.6745 20.8906 23.4387C20.4182 23.2029 18.8939 22.7067 17.0881 21.1036C15.6826 19.8559 14.7343 18.3155 14.4586 17.8448C14.183 17.374 14.429 17.1187 14.6656 16.8846C14.8785 16.6734 15.1381 16.335 15.3747 16.0601C15.6114 15.7853 15.6902 15.5885 15.8472 15.2747C16.0041 14.9609 15.926 14.686 15.8081 14.4511C15.6902 14.2161 14.7445 11.8997 14.3509 10.9573C13.9667 10.0395 13.5773 10.1642 13.2873 10.1498C13.0116 10.1362 12.6935 10.1328 12.3805 10.1328C12.1412 10.1391 11.9058 10.1945 11.689 10.2958C11.4721 10.3971 11.2784 10.542 11.1201 10.7215C10.6866 11.1931 9.46521 12.3331 9.46521 14.647C9.46521 16.9609 11.1616 19.2002 11.3957 19.5141C11.6298 19.8279 14.7292 24.5804 19.4716 26.6187C20.3522 26.9958 21.252 27.3265 22.1672 27.6094C23.2996 27.9673 24.3301 27.9173 25.1444 27.796C26.0529 27.6611 27.9435 26.6577 28.3363 25.5584C28.729 24.4591 28.7298 23.5176 28.6119 23.3217C28.494 23.1257 28.1785 23.007 27.7052 22.772Z" fill="url(#paint0_linear_41_763)"/>
<defs>
<linearGradient id="paint0_linear_41_763" x1="38" y1="19" x2="7.29924e-08" y2="19" gradientUnits="userSpaceOnUse">
<stop stop-color="#663C28"/>
<stop offset="1" stop-color="#D8AC88"/>
</linearGradient>
</defs>
</svg>
